Simulation
nRows=20
nColumns=15
endheader
time  TH_x TH_y TH_z SC_y  SC_z  SC_x  AC_y  AC_z  AC_x  GH_y  GH_z  GH_yy  EL_x  PS_y
0.0  0.000000  0.000000  0.000000  -30.771096082815394  -1.8482503405994735  11.767680434335572  57.10010817390179  -6.321096018616666  -12.994760157980151  17.793945461551065  -4.071241559063133  6.209330653758195  25.542574061190997  0.000000
0.015  0.000000  0.000000  0.000000  -30.874319404510118  -1.932050438258911  11.811756292932905  57.149423172557995  -6.290264091915997  -13.011807774244703  17.7141859739067  -3.8123294501965703  6.128282992939396  25.56353016540755  0.000000
0.03  0.000000  0.000000  0.000000  -30.85410690523768  -1.9152602995152317  11.866232140052796  57.20692479374056  -6.316287818270121  -13.001449670283552  17.734385429992596  -3.511716558121599  6.082270733466935  25.573719982250076  0.000000
0.045  0.000000  0.000000  0.000000  -30.88321034970095  -1.8842751340230188  11.937798725345763  57.232181912769  -6.352323081510473  -12.998466905467877  17.809450906275384  -3.1595691092839986  5.978898687465453  25.55541584214957  0.000000
0.06  0.000000  0.000000  0.000000  -30.924044416851427  -1.8583952188524409  12.021477831869678  57.24573800296155  -6.399790711550719  -13.011311251346775  17.88903014782854  -2.761924439587692  5.764680229120436  25.521286961744565  0.000000
0.075  0.000000  0.000000  0.000000  -30.98075105456962  -1.8341106341105042  12.121289204144007  57.26544386749272  -6.457151176542611  -13.033177269869336  17.993889264365386  -2.3156360602445574  5.467501562872494  25.47145529102866  0.000000
0.09  0.000000  0.000000  0.000000  -31.036291623395694  -1.8073484635021468  12.238202359133087  57.27893794442284  -6.519026684178122  -13.063425248454841  18.113395337231747  -1.8330073431649099  5.0889006203841936  25.415922168394673  0.000000
0.105  0.000000  0.000000  0.000000  -31.091904137213106  -1.7760957543542266  12.369912375020917  57.29706696765007  -6.586887973647742  -13.098418759880463  18.246261725317762  -1.3090457610581876  4.641860197604291  25.35413079482157  0.000000
0.12  0.000000  0.000000  0.000000  -31.14686900635831  -1.7400549734657698  12.51573687565557  57.3150023152135  -6.655127814357538  -13.138758200236719  18.388901017684542  -0.7487359805430656  4.136149273278102  25.2902978633677  0.000000
0.135  0.000000  0.000000  0.000000  -31.19945878667001  -1.6986437549124713  12.673428163810856  57.33412066766782  -6.72254035344185  -13.182565571620634  18.536952227471  -0.1533541779630629  3.5802689661884717  25.222374982975722  0.000000
0.15  0.000000  0.000000  0.000000  -31.249958112504103  -1.6525384804008676  12.840730628934944  57.35509625153016  -6.785811806167221  -13.230099782471155  18.687362921574728  0.47472366606587946  2.9830840927462403  25.152243274340904  0.000000
0.16499999999999998  0.000000  0.000000  0.000000  -31.297503561861742  -1.6018492449210675  13.01576967687926  57.37627166310925  -6.842415196005824  -13.280600322282478  18.837534960320426  1.131930732328896  2.3527834534151273  25.07894449752531  0.000000
0.18  0.000000  0.000000  0.000000  -31.341841874643947  -1.5475376885642944  13.197271355164506  57.399244901656076  -6.891551324210184  -13.334529594259322  18.984336980928937  1.8160168114479018  1.696151447394218  25.003384604950288  0.000000
0.195  0.000000  0.000000  0.000000  -31.383147349206684  -1.4899721889684914  13.385103595254897  57.423405230594646  -6.932596884382544  -13.391320859144779  19.12686372011312  2.523497282434757  1.0208643331326561  24.925177238590138  0.000000
0.21  0.000000  0.000000  0.000000  -31.421345824480845  -1.4298635066754009  13.578570072006247  57.45053622793669  -6.9657960912163945  -13.450252560445414  19.2631850923117  3.2517182915628657  0.33238778506541583  24.84507491343757  0.000000
0.22499999999999998  0.000000  0.000000  0.000000  -31.45723223739111  -1.3677238323413088  13.776964005690179  57.481123943160384  -6.990547353507475  -13.510068323634796  19.393366375223724  3.9975466151718146  -0.36296966977172074  24.76326944880863  0.000000
0.24  0.000000  0.000000  0.000000  -31.49079494454469  -1.3044990860669043  13.978488587300063  57.516719884238604  -7.00604391582353  -13.569692625369656  19.515930075328054  4.758422211594033  -1.0610902298382803  24.680303814189564  0.000000
0.255  0.000000  0.000000  0.000000  -31.522445854489188  -1.241068263257332  14.181773268714545  57.55761245721231  -7.0107845552256025  -13.6285951078956  19.630387789461793  5.531707553048971  -1.7574111853212122  24.596306722385208  0.000000
0.27  0.000000  0.000000  0.000000  -31.552157474853455  -1.1777277027863553  14.385407410179566  57.60457785829228  -7.003745457142439  -13.686045689219142  19.735561213534144  6.315502767386172  -2.4488356503882933  24.511011830008215  0.000000
0.285  0.000000  0.000000  0.000000  -31.58016275485741  -1.1141108974320857  14.588719688140694  57.65666096924324  -6.983125572974777  -13.741772384978447  19.831262774737507  7.107733145400671  -3.1319909450321592  24.424216322194663  0.000000
